<svg xmlns="http://www.w3.org/2000/svg" viewBox="0 0 64 64" fill="none">
  <defs>
    <linearGradient id="shieldGrad" x1="0" y1="0" x2="64" y2="64" gradientUnits="userSpaceOnUse">
      <stop offset="0%" stop-color="#6366f1"/>
      <stop offset="100%" stop-color="#a78bfa"/>
    </linearGradient>
    <linearGradient id="glowGrad" x1="0" y1="0" x2="64" y2="64" gradientUnits="userSpaceOnUse">
      <stop offset="0%" stop-color="#818cf8"/>
      <stop offset="100%" stop-color="#c4b5fd"/>
    </linearGradient>
  </defs>
  <!-- Shield body -->
  <path d="M32 4 L56 16 V34 C56 48 44 58 32 62 C20 58 8 48 8 34 V16 L32 4Z" fill="url(#shieldGrad)" opacity="0.9"/>
  <path d="M32 4 L56 16 V34 C56 48 44 58 32 62 C20 58 8 48 8 34 V16 L32 4Z" fill="none" stroke="url(#glowGrad)" stroke-width="1.5"/>
  <!-- Key icon -->
  <circle cx="32" cy="26" r="7" fill="none" stroke="#e0e7ff" stroke-width="2.5"/>
  <line x1="32" y1="33" x2="32" y2="48" stroke="#e0e7ff" stroke-width="2.5" stroke-linecap="round"/>
  <line x1="32" y1="42" x2="37" y2="42" stroke="#e0e7ff" stroke-width="2.5" stroke-linecap="round"/>
  <line x1="32" y1="46" x2="36" y2="46" stroke="#e0e7ff" stroke-width="2.5" stroke-linecap="round"/>
  <!-- Blockchain nodes -->
  <circle cx="16" cy="22" r="2" fill="#c4b5fd" opacity="0.7"/>
  <circle cx="48" cy="22" r="2" fill="#c4b5fd" opacity="0.7"/>
  <circle cx="20" cy="40" r="2" fill="#c4b5fd" opacity="0.7"/>
  <circle cx="44" cy="40" r="2" fill="#c4b5fd" opacity="0.7"/>
  <!-- Connection lines -->
  <line x1="16" y1="22" x2="25" y2="26" stroke="#c4b5fd" stroke-width="0.8" opacity="0.4"/>
  <line x1="48" y1="22" x2="39" y2="26" stroke="#c4b5fd" stroke-width="0.8" opacity="0.4"/>
  <line x1="20" y1="40" x2="30" y2="38" stroke="#c4b5fd" stroke-width="0.8" opacity="0.4"/>
  <line x1="44" y1="40" x2="34" y2="38" stroke="#c4b5fd" stroke-width="0.8" opacity="0.4"/>
</svg>
